<?xml version="1.0" encoding="UTF-8" standalone="no"?>
<!-- Created with Inkscape (http://www.inkscape.org/) -->

<svg
   width="512"
   height="512"
   viewBox="0 0 135.46666 135.46667"
   version="1.1"
   id="svg1"
   sodipodi:docname="logo.svg"
   inkscape:version="1.4.4 (dcaf3e7d9e, 2026-05-05)"
   inkscape:export-filename="/home/owl/Documents/sync/Projects/oliv-finance/marketing/Gumroad/logo.png"
   inkscape:export-xdpi="96"
   inkscape:export-ydpi="96"
   xmlns:inkscape="http://www.inkscape.org/namespaces/inkscape"
   xmlns:sodipodi="http://sodipodi.sourceforge.net/DTD/sodipodi-0.dtd"
   xmlns="http://www.w3.org/2000/svg"
   xmlns:svg="http://www.w3.org/2000/svg">
  <sodipodi:namedview
     id="namedview1"
     pagecolor="#ffffff"
     bordercolor="#000000"
     borderopacity="0.25"
     inkscape:showpageshadow="2"
     inkscape:pageopacity="0.0"
     inkscape:pagecheckerboard="0"
     inkscape:deskcolor="#d1d1d1"
     inkscape:document-units="mm"
     inkscape:zoom="0.5512684"
     inkscape:cx="-208.60982"
     inkscape:cy="197.72583"
     inkscape:window-width="2560"
     inkscape:window-height="1371"
     inkscape:window-x="0"
     inkscape:window-y="0"
     inkscape:window-maximized="1"
     inkscape:current-layer="layer1"
     showgrid="false" />
  <defs
     id="defs1">
    <filter
       style="color-interpolation-filters:sRGB;"
       inkscape:label="Drop Shadow"
       id="filter2"
       x="-0.029634402"
       y="-0.029634402"
       width="1.0592688"
       height="1.0638992">
      <feFlood
         result="flood"
         in="SourceGraphic"
         flood-opacity="0.831373"
         flood-color="rgb(11,11,11)"
         id="feFlood1" />
      <feGaussianBlur
         result="blur"
         in="SourceGraphic"
         stdDeviation="1.600000"
         id="feGaussianBlur1" />
      <feOffset
         result="offset"
         in="blur"
         dx="0.000000"
         dy="0.600000"
         id="feOffset1" />
      <feComposite
         result="comp1"
         operator="in"
         in="flood"
         in2="offset"
         id="feComposite1" />
      <feComposite
         result="comp2"
         operator="over"
         in="SourceGraphic"
         in2="comp1"
         id="feComposite2" />
    </filter>
  </defs>
  <g
     inkscape:label="Layer 1"
     inkscape:groupmode="layer"
     id="layer1">
    <rect
       style="display:none;fill:#e6e6e6;fill-opacity:1;stroke-width:0.75184;stroke-linejoin:round;filter:url(#filter2)"
       id="rect1"
       width="129.57913"
       height="129.57913"
       x="2.9437709"
       y="2.9437709"
       rx="14.348083" />
    <path
       sodipodi:type="star"
       style="fill:#217867;fill-opacity:1;stroke:none;stroke-width:8.56332;stroke-linejoin:miter;stroke-dasharray:none;stroke-opacity:1"
       id="path2"
       inkscape:flatsided="true"
       sodipodi:sides="5"
       sodipodi:cx="34.205036"
       sodipodi:cy="24.085203"
       sodipodi:r1="28.347095"
       sodipodi:r2="14.173548"
       sodipodi:arg1="1.5707963"
       sodipodi:arg2="2.1991148"
       inkscape:rounded="0.14"
       inkscape:randomized="0.2"
       d="M 34.46757,54.520344 C 29.446029,54.367295 4.4516767,38.012611 3.1866615,33.62753 1.9216463,29.242449 16.50441,5.8742036 19.320156,2.4497581 22.135901,-0.97468748 51.126568,3.3086051 54.631783,5.9654614 58.136999,8.6223177 63.003458,30.985572 61.724902,35.472581 60.446345,39.95959 39.489111,54.673394 34.46757,54.520344 Z"
       inkscape:transform-center-x="1.8447706"
       inkscape:transform-center-y="-3.03127"
       transform="matrix(-1.5243992,-1.0002822,0.78844003,-1.3135249,101.11826,137.37027)" />
    <path
       sodipodi:type="star"
       style="opacity:0.751131;fill:#37c8ab;fill-opacity:1;stroke:none;stroke-width:8.56332;stroke-linejoin:miter;stroke-dasharray:none;stroke-opacity:1"
       id="path2-3"
       inkscape:flatsided="true"
       sodipodi:sides="7"
       sodipodi:cx="34.205036"
       sodipodi:cy="24.085203"
       sodipodi:r1="28.347095"
       sodipodi:r2="14.173548"
       sodipodi:arg1="1.5707963"
       sodipodi:arg2="2.0195953"
       inkscape:rounded="0.14"
       inkscape:randomized="0.2"
       d="M 34.46757,54.520344 C 30.760834,54.407368 18.496009,42.042852 15.879922,39.940959 13.263836,37.839067 11.402599,18.526152 11.871043,14.807742 12.339486,11.089333 24.159839,4.4902914 27.497939,3.2689505 30.836038,2.0476096 40.651281,-0.35401608 43.575196,1.6709654 46.499111,3.6959469 57.857919,14.557443 59.294359,17.560786 c 1.43644,3.003343 2.968224,25.211503 1.27524,28.423654 -1.692983,3.212151 -22.395293,8.648881 -26.102029,8.535904 z"
       inkscape:transform-center-x="1.2172286"
       inkscape:transform-center-y="-1.0680613"
       transform="matrix(-1.005839,-0.3524471,0.52023363,-0.46281744,94.420176,71.473632)" />
    <path
       sodipodi:type="star"
       style="display:inline;opacity:0.431373;fill:#005544;fill-opacity:1;stroke:none;stroke-width:8.56332;stroke-linejoin:miter;stroke-dasharray:none;stroke-opacity:1"
       id="path2-36"
       inkscape:flatsided="true"
       sodipodi:sides="5"
       sodipodi:cx="34.205036"
       sodipodi:cy="24.085203"
       sodipodi:r1="28.347095"
       sodipodi:r2="14.173548"
       sodipodi:arg1="1.5707963"
       sodipodi:arg2="2.1991148"
       inkscape:rounded="0.14"
       inkscape:randomized="0.2"
       d="M 34.46757,54.520344 C 29.446029,54.367295 4.4516767,38.012611 3.1866615,33.62753 1.9216463,29.242449 16.50441,5.8742036 19.320156,2.4497581 22.135901,-0.97468748 51.126568,3.3086051 54.631783,5.9654614 58.136999,8.6223177 63.003458,30.985572 61.724902,35.472581 60.446345,39.95959 39.489111,54.673394 34.46757,54.520344 Z"
       inkscape:transform-center-x="1.5344442"
       inkscape:transform-center-y="-2.4160681"
       transform="matrix(-1.2679672,-0.7972739,0.65580993,-1.0469437,97.173581,124.27472)" />
    <path
       sodipodi:type="star"
       style="display:inline;opacity:0.144796;fill:#00ffcc;fill-opacity:1;stroke:none;stroke-width:8.56332;stroke-linejoin:miter;stroke-dasharray:none;stroke-opacity:1"
       id="path2-36-1"
       inkscape:flatsided="true"
       sodipodi:sides="5"
       sodipodi:cx="34.205036"
       sodipodi:cy="24.085203"
       sodipodi:r1="28.347095"
       sodipodi:r2="14.173548"
       sodipodi:arg1="1.5707963"
       sodipodi:arg2="2.1991148"
       inkscape:rounded="0.14"
       inkscape:randomized="0.2"
       d="M 34.46757,54.520344 C 29.446029,54.367295 4.4516767,38.012611 3.1866615,33.62753 1.9216463,29.242449 16.50441,5.8742036 19.320156,2.4497581 22.135901,-0.97468748 51.126568,3.3086051 54.631783,5.9654614 58.136999,8.6223177 63.003458,30.985572 61.724902,35.472581 60.446345,39.95959 39.489111,54.673394 34.46757,54.520344 Z"
       inkscape:transform-center-x="1.2901233"
       inkscape:transform-center-y="-1.9711789"
       transform="matrix(-1.0660762,-0.650464,0.55138916,-0.85415961,82.185633,101.09224)" />
  </g>
</svg>
